<svg width="102" height="122" viewBox="0 0 102 122" fill="none" xmlns="http://www.w3.org/2000/svg">
<path d="M10.79 105.926V115H8.97V109.098L6.539 115H5.161L2.717 109.098V115H0.897V105.926H2.964L5.85 112.673L8.736 105.926H10.79ZM12.1214 111.373C12.1214 110.645 12.2644 109.999 12.5504 109.436C12.845 108.873 13.2394 108.439 13.7334 108.136C14.236 107.833 14.795 107.681 15.4104 107.681C15.9477 107.681 16.4157 107.789 16.8144 108.006C17.2217 108.223 17.5467 108.496 17.7894 108.825V107.798H19.6224V115H17.7894V113.947C17.5554 114.285 17.2304 114.567 16.8144 114.792C16.407 115.009 15.9347 115.117 15.3974 115.117C14.7907 115.117 14.236 114.961 13.7334 114.649C13.2394 114.337 12.845 113.899 12.5504 113.336C12.2644 112.764 12.1214 112.11 12.1214 111.373ZM17.7894 111.399C17.7894 110.957 17.7027 110.58 17.5294 110.268C17.356 109.947 17.122 109.705 16.8274 109.54C16.5327 109.367 16.2164 109.28 15.8784 109.28C15.5404 109.28 15.2284 109.362 14.9424 109.527C14.6564 109.692 14.4224 109.934 14.2404 110.255C14.067 110.567 13.9804 110.94 13.9804 111.373C13.9804 111.806 14.067 112.188 14.2404 112.517C14.4224 112.838 14.6564 113.085 14.9424 113.258C15.237 113.431 15.549 113.518 15.8784 113.518C16.2164 113.518 16.5327 113.436 16.8274 113.271C17.122 113.098 17.356 112.855 17.5294 112.543C17.7027 112.222 17.7894 111.841 17.7894 111.399ZM24.1559 115.117C23.5666 115.117 23.0379 115.013 22.5699 114.805C22.1019 114.588 21.7293 114.298 21.4519 113.934C21.1833 113.57 21.0359 113.167 21.0099 112.725H22.8429C22.8776 113.002 23.0119 113.232 23.2459 113.414C23.4886 113.596 23.7876 113.687 24.1429 113.687C24.4896 113.687 24.7583 113.618 24.9489 113.479C25.1483 113.34 25.2479 113.163 25.2479 112.946C25.2479 112.712 25.1266 112.539 24.8839 112.426C24.6499 112.305 24.2729 112.175 23.7529 112.036C23.2156 111.906 22.7736 111.772 22.4269 111.633C22.0889 111.494 21.7943 111.282 21.5429 110.996C21.3003 110.71 21.1789 110.324 21.1789 109.839C21.1789 109.44 21.2916 109.076 21.5169 108.747C21.7509 108.418 22.0803 108.158 22.5049 107.967C22.9383 107.776 23.4453 107.681 24.0259 107.681C24.8839 107.681 25.5686 107.898 26.0799 108.331C26.5913 108.756 26.8729 109.332 26.9249 110.06H25.1829C25.1569 109.774 25.0356 109.549 24.8189 109.384C24.6109 109.211 24.3293 109.124 23.9739 109.124C23.6446 109.124 23.3889 109.185 23.2069 109.306C23.0336 109.427 22.9469 109.596 22.9469 109.813C22.9469 110.056 23.0683 110.242 23.3109 110.372C23.5536 110.493 23.9306 110.619 24.4419 110.749C24.9619 110.879 25.3909 111.013 25.7289 111.152C26.0669 111.291 26.3573 111.507 26.5999 111.802C26.8513 112.088 26.9813 112.469 26.9899 112.946C26.9899 113.362 26.8729 113.735 26.6389 114.064C26.4136 114.393 26.0843 114.653 25.6509 114.844C25.2263 115.026 24.7279 115.117 24.1559 115.117ZM32.7479 115L30.3039 111.932V115H28.4839V105.38H30.3039V110.853L32.7219 107.798H35.0879L31.9159 111.412L35.1139 115H32.7479ZM38.7054 111.373C38.7054 110.645 38.8484 109.999 39.1344 109.436C39.429 108.873 39.8277 108.439 40.3304 108.136C40.833 107.833 41.392 107.681 42.0074 107.681C42.4754 107.681 42.9217 107.785 43.3464 107.993C43.771 108.192 44.109 108.461 44.3604 108.799V105.38H46.2064V115H44.3604V113.934C44.135 114.289 43.8187 114.575 43.4114 114.792C43.004 115.009 42.5317 115.117 41.9944 115.117C41.3877 115.117 40.833 114.961 40.3304 114.649C39.8277 114.337 39.429 113.899 39.1344 113.336C38.8484 112.764 38.7054 112.11 38.7054 111.373ZM44.3734 111.399C44.3734 110.957 44.2867 110.58 44.1134 110.268C43.94 109.947 43.706 109.705 43.4114 109.54C43.1167 109.367 42.8004 109.28 42.4624 109.28C42.1244 109.28 41.8124 109.362 41.5264 109.527C41.2404 109.692 41.0064 109.934 40.8244 110.255C40.651 110.567 40.5644 110.94 40.5644 111.373C40.5644 111.806 40.651 112.188 40.8244 112.517C41.0064 112.838 41.2404 113.085 41.5264 113.258C41.821 113.431 42.133 113.518 42.4624 113.518C42.8004 113.518 43.1167 113.436 43.4114 113.271C43.706 113.098 43.94 112.855 44.1134 112.543C44.2867 112.222 44.3734 111.841 44.3734 111.399ZM54.6789 111.243C54.6789 111.503 54.6616 111.737 54.6269 111.945H49.3619C49.4052 112.465 49.5872 112.872 49.9079 113.167C50.2286 113.462 50.6229 113.609 51.0909 113.609C51.7669 113.609 52.2479 113.319 52.5339 112.738H54.4969C54.2889 113.431 53.8902 114.003 53.3009 114.454C52.7116 114.896 51.9879 115.117 51.1299 115.117C50.4366 115.117 49.8126 114.965 49.2579 114.662C48.7119 114.35 48.2829 113.912 47.9709 113.349C47.6676 112.786 47.5159 112.136 47.5159 111.399C47.5159 110.654 47.6676 109.999 47.9709 109.436C48.2742 108.873 48.6989 108.439 49.2449 108.136C49.7909 107.833 50.4192 107.681 51.1299 107.681C51.8146 107.681 52.4256 107.828 52.9629 108.123C53.5089 108.418 53.9292 108.838 54.2239 109.384C54.5272 109.921 54.6789 110.541 54.6789 111.243ZM52.7939 110.723C52.7852 110.255 52.6162 109.882 52.2869 109.605C51.9576 109.319 51.5546 109.176 51.0779 109.176C50.6272 109.176 50.2459 109.315 49.9339 109.592C49.6306 109.861 49.4442 110.238 49.3749 110.723H52.7939ZM58.1264 109.293V112.777C58.1264 113.02 58.1827 113.197 58.2954 113.31C58.4167 113.414 58.616 113.466 58.8934 113.466H59.7384V115H58.5944C57.0604 115 56.2934 114.255 56.2934 112.764V109.293H55.4354V107.798H56.2934V106.017H58.1264V107.798H59.7384V109.293H58.1264ZM67.7424 111.243C67.7424 111.503 67.7251 111.737 67.6904 111.945H62.4254C62.4687 112.465 62.6507 112.872 62.9714 113.167C63.2921 113.462 63.6864 113.609 64.1544 113.609C64.8304 113.609 65.3114 113.319 65.5974 112.738H67.5604C67.3524 113.431 66.9537 114.003 66.3644 114.454C65.7751 114.896 65.0514 115.117 64.1934 115.117C63.5001 115.117 62.8761 114.965 62.3214 114.662C61.7754 114.35 61.3464 113.912 61.0344 113.349C60.7311 112.786 60.5794 112.136 60.5794 111.399C60.5794 110.654 60.7311 109.999 61.0344 109.436C61.3377 108.873 61.7624 108.439 62.3084 108.136C62.8544 107.833 63.4827 107.681 64.1934 107.681C64.8781 107.681 65.4891 107.828 66.0264 108.123C66.5724 108.418 66.9927 108.838 67.2874 109.384C67.5907 109.921 67.7424 110.541 67.7424 111.243ZM65.8574 110.723C65.8487 110.255 65.6797 109.882 65.3504 109.605C65.0211 109.319 64.6181 109.176 64.1414 109.176C63.6907 109.176 63.3094 109.315 62.9974 109.592C62.6941 109.861 62.5077 110.238 62.4384 110.723H65.8574ZM68.6028 111.399C68.6028 110.654 68.7545 110.004 69.0578 109.449C69.3612 108.886 69.7815 108.452 70.3188 108.149C70.8562 107.837 71.4715 107.681 72.1648 107.681C73.0575 107.681 73.7942 107.906 74.3748 108.357C74.9642 108.799 75.3585 109.423 75.5578 110.229H73.5948C73.4908 109.917 73.3132 109.674 73.0618 109.501C72.8192 109.319 72.5158 109.228 72.1518 109.228C71.6318 109.228 71.2202 109.419 70.9168 109.8C70.6135 110.173 70.4618 110.706 70.4618 111.399C70.4618 112.084 70.6135 112.617 70.9168 112.998C71.2202 113.371 71.6318 113.557 72.1518 113.557C72.8885 113.557 73.3695 113.228 73.5948 112.569H75.5578C75.3585 113.349 74.9642 113.969 74.3748 114.428C73.7855 114.887 73.0488 115.117 72.1648 115.117C71.4715 115.117 70.8562 114.965 70.3188 114.662C69.7815 114.35 69.3612 113.917 69.0578 113.362C68.7545 112.799 68.6028 112.144 68.6028 111.399ZM79.0101 109.293V112.777C79.0101 113.02 79.0665 113.197 79.1791 113.31C79.3005 113.414 79.4998 113.466 79.7771 113.466H80.6221V115H79.4781C77.9441 115 77.1771 114.255 77.1771 112.764V109.293H76.3191V107.798H77.1771V106.017H79.0101V107.798H80.6221V109.293H79.0101ZM82.8542 106.94C82.5335 106.94 82.2648 106.84 82.0482 106.641C81.8402 106.433 81.7362 106.177 81.7362 105.874C81.7362 105.571 81.8402 105.319 82.0482 105.12C82.2648 104.912 82.5335 104.808 82.8542 104.808C83.1748 104.808 83.4392 104.912 83.6472 105.12C83.8638 105.319 83.9722 105.571 83.9722 105.874C83.9722 106.177 83.8638 106.433 83.6472 106.641C83.4392 106.84 83.1748 106.94 82.8542 106.94ZM83.7512 107.798V115H81.9312V107.798H83.7512ZM88.7473 115.117C88.054 115.117 87.43 114.965 86.8753 114.662C86.3207 114.35 85.883 113.912 85.5623 113.349C85.2503 112.786 85.0943 112.136 85.0943 111.399C85.0943 110.662 85.2547 110.012 85.5753 109.449C85.9047 108.886 86.351 108.452 86.9143 108.149C87.4777 107.837 88.106 107.681 88.7993 107.681C89.4927 107.681 90.121 107.837 90.6843 108.149C91.2477 108.452 91.6897 108.886 92.0103 109.449C92.3397 110.012 92.5043 110.662 92.5043 111.399C92.5043 112.136 92.3353 112.786 91.9973 113.349C91.668 113.912 91.2173 114.35 90.6453 114.662C90.082 114.965 89.4493 115.117 88.7473 115.117ZM88.7473 113.531C89.0767 113.531 89.3843 113.453 89.6703 113.297C89.965 113.132 90.199 112.89 90.3723 112.569C90.5457 112.248 90.6323 111.858 90.6323 111.399C90.6323 110.714 90.4503 110.19 90.0863 109.826C89.731 109.453 89.2933 109.267 88.7733 109.267C88.2533 109.267 87.8157 109.453 87.4603 109.826C87.1137 110.19 86.9403 110.714 86.9403 111.399C86.9403 112.084 87.1093 112.612 87.4473 112.985C87.794 113.349 88.2273 113.531 88.7473 113.531ZM97.8304 107.694C98.6884 107.694 99.3817 107.967 99.9104 108.513C100.439 109.05 100.703 109.804 100.703 110.775V115H98.8834V111.022C98.8834 110.45 98.7404 110.012 98.4544 109.709C98.1684 109.397 97.7784 109.241 97.2844 109.241C96.7817 109.241 96.383 109.397 96.0884 109.709C95.8024 110.012 95.6594 110.45 95.6594 111.022V115H93.8394V107.798H95.6594V108.695C95.902 108.383 96.2097 108.14 96.5824 107.967C96.9637 107.785 97.3797 107.694 97.8304 107.694Z" fill="#183153"/>
<circle cx="51" cy="41" r="41" fill="#EFEBEB"/>
<g clip-path="url(#clip0_202_2483)">
<path d="M51.0274 27.4099C35.4474 27.4099 35.0774 44.8749 35.0774 48.3324C35.0774 51.7899 42.2174 54.5899 51.0249 54.5899C59.8349 54.5899 66.9724 51.7874 66.9724 48.3324C66.9724 44.8749 66.6074 27.4099 51.0274 27.4099Z" fill="#FCC21B"/>
<path d="M43.7449 36.6924C43.7549 36.4499 43.7974 36.2274 43.8524 36.0124C44.3049 35.9624 44.7924 35.8849 45.3274 35.7349C46.1199 35.5224 46.7049 35.1549 47.1649 34.7524C47.6674 35.2249 47.9799 35.9624 47.9549 36.7899C47.9124 38.1824 46.9399 39.2924 45.7749 39.2674C44.6124 39.2399 43.7049 38.0824 43.7449 36.6924ZM58.2074 36.6924C58.1974 36.4499 58.1549 36.2274 58.0999 36.0124C57.6474 35.9624 57.1599 35.8849 56.6249 35.7349C55.8324 35.5224 55.2474 35.1549 54.7874 34.7524C54.2849 35.2249 53.9724 35.9624 53.9974 36.7899C54.0399 38.1824 55.0124 39.2924 56.1774 39.2674C57.3399 39.2399 58.2474 38.0824 58.2074 36.6924Z" fill="#2F2F2F"/>
<path d="M58.01 52.5925C53.3523 53.1325 48.6477 53.1325 43.99 52.5925C42.6125 52.4325 41.5 51.13 41.5 49.75V43.5C41.5 42.1175 42.6125 41.1825 43.99 41.3425C48.6475 41.8825 53.3525 41.8825 58.01 41.3425C59.3875 41.1825 60.5 42.1175 60.5 43.5V49.75C60.5 51.13 59.3875 52.4325 58.01 52.5925Z" fill="white"/>
<path d="M59.2999 45.025C58.9399 45.025 58.6224 44.765 58.5624 44.3975C58.5298 44.2016 58.5763 44.0008 58.6916 43.8391C58.8069 43.6774 58.9816 43.568 59.1774 43.535C59.2224 43.5275 63.7249 42.7525 67.2774 40.355C67.6224 40.1225 68.0874 40.215 68.3199 40.5575C68.5524 40.9 68.4624 41.3675 68.1174 41.6C64.2874 44.1825 59.6224 44.98 59.4249 45.015C59.3824 45.02 59.3424 45.025 59.2999 45.025Z" fill="white"/>
<path d="M59.3001 49.7925C58.9051 49.7925 58.5726 49.4825 58.5526 49.0825C58.542 48.884 58.6105 48.6894 58.7431 48.5413C58.8757 48.3933 59.0616 48.3038 59.2601 48.2925C59.3051 48.29 63.8701 48.03 67.4326 46.6925C67.618 46.6249 67.8226 46.6333 68.002 46.7157C68.1813 46.7981 68.3209 46.948 68.3904 47.1327C68.4599 47.3174 68.4536 47.5221 68.3731 47.7023C68.2925 47.8825 68.1441 48.0236 67.9601 48.095C64.1776 49.515 59.5351 49.7775 59.3401 49.7875C59.3276 49.7925 59.3151 49.7925 59.3001 49.7925Z" fill="white"/>
<path d="M42.7524 45.025C42.7124 45.025 42.6699 45.0225 42.6274 45.015C42.4299 44.9825 37.7649 44.185 33.9349 41.5975C33.5924 41.365 33.4999 40.9 33.7324 40.555C33.9649 40.21 34.4299 40.12 34.7724 40.3525C38.3349 42.7575 42.8274 43.525 42.8724 43.5325C43.2799 43.6 43.5574 43.9875 43.4899 44.395C43.4619 44.5705 43.3723 44.7303 43.2372 44.8458C43.102 44.9612 42.9302 45.0247 42.7524 45.025Z" fill="white"/>
<path d="M42.75 49.7925H42.71C42.515 49.7825 37.8725 49.52 34.09 48.1C33.9978 48.0655 33.9132 48.0132 33.8413 47.946C33.7693 47.8788 33.7113 47.7981 33.6707 47.7084C33.63 47.6187 33.6075 47.5219 33.6044 47.4235C33.6013 47.3251 33.6176 47.227 33.6525 47.135C33.687 47.0427 33.7393 46.9582 33.8065 46.8862C33.8737 46.8142 33.9544 46.7563 34.0441 46.7156C34.1338 46.6749 34.2306 46.6524 34.329 46.6493C34.4274 46.6462 34.5255 46.6626 34.6175 46.6975C38.1875 48.0375 42.745 48.295 42.79 48.2975C43.2025 48.32 43.52 48.6725 43.5 49.0875C43.4884 49.2784 43.4043 49.4578 43.2649 49.5888C43.1255 49.7198 42.9414 49.7927 42.75 49.7925Z" fill="white"/>
</g>
<defs>
<clipPath id="clip0_202_2483">
<rect width="32" height="32" fill="white" transform="translate(35 25)"/>
</clipPath>
</defs>
</svg>
