<svg width="97" height="120" viewBox="0 0 97 120" fill="none" xmlns="http://www.w3.org/2000/svg">
<path d="M9.048 103.926L5.72 113H3.51L0.182 103.926H2.132L4.628 111.141L7.111 103.926H9.048ZM16.8342 109.243C16.8342 109.503 16.8169 109.737 16.7822 109.945H11.5172C11.5605 110.465 11.7425 110.872 12.0632 111.167C12.3839 111.462 12.7782 111.609 13.2462 111.609C13.9222 111.609 14.4032 111.319 14.6892 110.738H16.6522C16.4442 111.431 16.0455 112.003 15.4562 112.454C14.8669 112.896 14.1432 113.117 13.2852 113.117C12.5919 113.117 11.9679 112.965 11.4132 112.662C10.8672 112.35 10.4382 111.912 10.1262 111.349C9.82285 110.786 9.67119 110.136 9.67119 109.399C9.67119 108.654 9.82285 107.999 10.1262 107.436C10.4295 106.873 10.8542 106.439 11.4002 106.136C11.9462 105.833 12.5745 105.681 13.2852 105.681C13.9699 105.681 14.5809 105.828 15.1182 106.123C15.6642 106.418 16.0845 106.838 16.3792 107.384C16.6825 107.921 16.8342 108.541 16.8342 109.243ZM14.9492 108.723C14.9405 108.255 14.7715 107.882 14.4422 107.605C14.1129 107.319 13.7099 107.176 13.2332 107.176C12.7825 107.176 12.4012 107.315 12.0892 107.592C11.7859 107.861 11.5995 108.238 11.5302 108.723H14.9492ZM20.9186 113.117C20.3293 113.117 19.8006 113.013 19.3326 112.805C18.8646 112.588 18.492 112.298 18.2146 111.934C17.946 111.57 17.7986 111.167 17.7726 110.725H19.6056C19.6403 111.002 19.7746 111.232 20.0086 111.414C20.2513 111.596 20.5503 111.687 20.9056 111.687C21.2523 111.687 21.521 111.618 21.7116 111.479C21.911 111.34 22.0106 111.163 22.0106 110.946C22.0106 110.712 21.8893 110.539 21.6466 110.426C21.4126 110.305 21.0356 110.175 20.5156 110.036C19.9783 109.906 19.5363 109.772 19.1896 109.633C18.8516 109.494 18.557 109.282 18.3056 108.996C18.063 108.71 17.9416 108.324 17.9416 107.839C17.9416 107.44 18.0543 107.076 18.2796 106.747C18.5136 106.418 18.843 106.158 19.2676 105.967C19.701 105.776 20.208 105.681 20.7886 105.681C21.6466 105.681 22.3313 105.898 22.8426 106.331C23.354 106.756 23.6356 107.332 23.6876 108.06H21.9456C21.9196 107.774 21.7983 107.549 21.5816 107.384C21.3736 107.211 21.092 107.124 20.7366 107.124C20.4073 107.124 20.1516 107.185 19.9696 107.306C19.7963 107.427 19.7096 107.596 19.7096 107.813C19.7096 108.056 19.831 108.242 20.0736 108.372C20.3163 108.493 20.6933 108.619 21.2046 108.749C21.7246 108.879 22.1536 109.013 22.4916 109.152C22.8296 109.291 23.12 109.507 23.3626 109.802C23.614 110.088 23.744 110.469 23.7526 110.946C23.7526 111.362 23.6356 111.735 23.4016 112.064C23.1763 112.393 22.847 112.653 22.4136 112.844C21.989 113.026 21.4906 113.117 20.9186 113.117ZM27.3656 107.293V110.777C27.3656 111.02 27.4219 111.197 27.5346 111.31C27.6559 111.414 27.8553 111.466 28.1326 111.466H28.9776V113H27.8336C26.2996 113 25.5326 112.255 25.5326 110.764V107.293H24.6746V105.798H25.5326V104.017H27.3656V105.798H28.9776V107.293H27.3656ZM36.5563 103.926C37.5096 103.926 38.346 104.112 39.0653 104.485C39.7933 104.858 40.3523 105.391 40.7423 106.084C41.141 106.769 41.3403 107.566 41.3403 108.476C41.3403 109.386 41.141 110.183 40.7423 110.868C40.3523 111.544 39.7933 112.068 39.0653 112.441C38.346 112.814 37.5096 113 36.5563 113H33.3843V103.926H36.5563ZM36.4913 111.453C37.4446 111.453 38.1813 111.193 38.7013 110.673C39.2213 110.153 39.4813 109.421 39.4813 108.476C39.4813 107.531 39.2213 106.795 38.7013 106.266C38.1813 105.729 37.4446 105.46 36.4913 105.46H35.2043V111.453H36.4913ZM49.3977 109.243C49.3977 109.503 49.3803 109.737 49.3457 109.945H44.0807C44.124 110.465 44.306 110.872 44.6267 111.167C44.9473 111.462 45.3417 111.609 45.8097 111.609C46.4857 111.609 46.9667 111.319 47.2527 110.738H49.2157C49.0077 111.431 48.609 112.003 48.0197 112.454C47.4303 112.896 46.7067 113.117 45.8487 113.117C45.1553 113.117 44.5313 112.965 43.9767 112.662C43.4307 112.35 43.0017 111.912 42.6897 111.349C42.3863 110.786 42.2347 110.136 42.2347 109.399C42.2347 108.654 42.3863 107.999 42.6897 107.436C42.993 106.873 43.4177 106.439 43.9637 106.136C44.5097 105.833 45.138 105.681 45.8487 105.681C46.5333 105.681 47.1443 105.828 47.6817 106.123C48.2277 106.418 48.648 106.838 48.9427 107.384C49.246 107.921 49.3977 108.541 49.3977 109.243ZM47.5127 108.723C47.504 108.255 47.335 107.882 47.0057 107.605C46.6763 107.319 46.2733 107.176 45.7967 107.176C45.346 107.176 44.9647 107.315 44.6527 107.592C44.3493 107.861 44.163 108.238 44.0937 108.723H47.5127ZM52.8451 107.293V110.777C52.8451 111.02 52.9014 111.197 53.0141 111.31C53.1354 111.414 53.3348 111.466 53.6121 111.466H54.4571V113H53.3131C51.7791 113 51.0121 112.255 51.0121 110.764V107.293H50.1541V105.798H51.0121V104.017H52.8451V105.798H54.4571V107.293H52.8451ZM62.4611 109.243C62.4611 109.503 62.4438 109.737 62.4091 109.945H57.1441C57.1875 110.465 57.3695 110.872 57.6901 111.167C58.0108 111.462 58.4051 111.609 58.8731 111.609C59.5491 111.609 60.0301 111.319 60.3161 110.738H62.2791C62.0711 111.431 61.6725 112.003 61.0831 112.454C60.4938 112.896 59.7701 113.117 58.9121 113.117C58.2188 113.117 57.5948 112.965 57.0401 112.662C56.4941 112.35 56.0651 111.912 55.7531 111.349C55.4498 110.786 55.2981 110.136 55.2981 109.399C55.2981 108.654 55.4498 107.999 55.7531 107.436C56.0565 106.873 56.4811 106.439 57.0271 106.136C57.5731 105.833 58.2015 105.681 58.9121 105.681C59.5968 105.681 60.2078 105.828 60.7451 106.123C61.2911 106.418 61.7115 106.838 62.0061 107.384C62.3095 107.921 62.4611 108.541 62.4611 109.243ZM60.5761 108.723C60.5675 108.255 60.3985 107.882 60.0691 107.605C59.7398 107.319 59.3368 107.176 58.8601 107.176C58.4095 107.176 58.0281 107.315 57.7161 107.592C57.4128 107.861 57.2265 108.238 57.1571 108.723H60.5761ZM63.3216 109.399C63.3216 108.654 63.4732 108.004 63.7766 107.449C64.0799 106.886 64.5002 106.452 65.0376 106.149C65.5749 105.837 66.1902 105.681 66.8836 105.681C67.7762 105.681 68.5129 105.906 69.0936 106.357C69.6829 106.799 70.0772 107.423 70.2766 108.229H68.3136C68.2096 107.917 68.0319 107.674 67.7806 107.501C67.5379 107.319 67.2346 107.228 66.8706 107.228C66.3506 107.228 65.9389 107.419 65.6356 107.8C65.3322 108.173 65.1806 108.706 65.1806 109.399C65.1806 110.084 65.3322 110.617 65.6356 110.998C65.9389 111.371 66.3506 111.557 66.8706 111.557C67.6072 111.557 68.0882 111.228 68.3136 110.569H70.2766C70.0772 111.349 69.6829 111.969 69.0936 112.428C68.5042 112.887 67.7676 113.117 66.8836 113.117C66.1902 113.117 65.5749 112.965 65.0376 112.662C64.5002 112.35 64.0799 111.917 63.7766 111.362C63.4732 110.799 63.3216 110.144 63.3216 109.399ZM73.7289 107.293V110.777C73.7289 111.02 73.7852 111.197 73.8979 111.31C74.0192 111.414 74.2186 111.466 74.4959 111.466H75.3409V113H74.1969C72.6629 113 71.8959 112.255 71.8959 110.764V107.293H71.0379V105.798H71.8959V104.017H73.7289V105.798H75.3409V107.293H73.7289ZM77.5729 104.94C77.2523 104.94 76.9836 104.84 76.7669 104.641C76.5589 104.433 76.4549 104.177 76.4549 103.874C76.4549 103.571 76.5589 103.319 76.7669 103.12C76.9836 102.912 77.2523 102.808 77.5729 102.808C77.8936 102.808 78.1579 102.912 78.3659 103.12C78.5826 103.319 78.6909 103.571 78.6909 103.874C78.6909 104.177 78.5826 104.433 78.3659 104.641C78.1579 104.84 77.8936 104.94 77.5729 104.94ZM78.4699 105.798V113H76.6499V105.798H78.4699ZM83.4661 113.117C82.7728 113.117 82.1488 112.965 81.5941 112.662C81.0394 112.35 80.6018 111.912 80.2811 111.349C79.9691 110.786 79.8131 110.136 79.8131 109.399C79.8131 108.662 79.9734 108.012 80.2941 107.449C80.6234 106.886 81.0698 106.452 81.6331 106.149C82.1964 105.837 82.8248 105.681 83.5181 105.681C84.2114 105.681 84.8398 105.837 85.4031 106.149C85.9664 106.452 86.4084 106.886 86.7291 107.449C87.0584 108.012 87.2231 108.662 87.2231 109.399C87.2231 110.136 87.0541 110.786 86.7161 111.349C86.3868 111.912 85.9361 112.35 85.3641 112.662C84.8008 112.965 84.1681 113.117 83.4661 113.117ZM83.4661 111.531C83.7954 111.531 84.1031 111.453 84.3891 111.297C84.6838 111.132 84.9178 110.89 85.0911 110.569C85.2644 110.248 85.3511 109.858 85.3511 109.399C85.3511 108.714 85.1691 108.19 84.8051 107.826C84.4498 107.453 84.0121 107.267 83.4921 107.267C82.9721 107.267 82.5344 107.453 82.1791 107.826C81.8324 108.19 81.6591 108.714 81.6591 109.399C81.6591 110.084 81.8281 110.612 82.1661 110.985C82.5128 111.349 82.9461 111.531 83.4661 111.531ZM92.5491 105.694C93.4071 105.694 94.1005 105.967 94.6291 106.513C95.1578 107.05 95.4221 107.804 95.4221 108.775V113H93.6021V109.022C93.6021 108.45 93.4591 108.012 93.1731 107.709C92.8871 107.397 92.4971 107.241 92.0031 107.241C91.5005 107.241 91.1018 107.397 90.8071 107.709C90.5211 108.012 90.3781 108.45 90.3781 109.022V113H88.5581V105.798H90.3781V106.695C90.6208 106.383 90.9285 106.14 91.3011 105.967C91.6825 105.785 92.0985 105.694 92.5491 105.694Z" fill="#183153"/>
<circle cx="49" cy="41" r="41" fill="#EFEBEB"/>
<path d="M62.2826 23.9482C62.7026 27.2688 63.9757 30.3401 65.8788 32.8863C66.8107 34.1463 67.3882 35.6426 67.3882 37.2044V54.8051C67.3882 56.7738 65.7869 58.3751 63.8182 58.3751H53.7776C51.1526 58.3751 49.0106 56.258 49.0106 53.633C49.0106 56.258 46.9001 58.3751 44.2751 58.3751H34.2082C32.2394 58.3751 30.6382 56.7738 30.6382 54.8051V37.4669C30.6382 35.8657 31.2288 34.3432 32.2001 33.0701C34.1951 30.4713 35.5601 27.3213 36.0063 23.9219C36.1769 22.6226 37.2269 21.6382 38.5394 21.6382H57.3607C58.1088 21.6382 58.9751 21.6382 59.7757 21.6513C61.0619 21.6513 62.1251 22.6488 62.2826 23.9482Z" fill="#FF6723"/>
<path d="M59.5131 50.5H67.375V47.875H59.5131V21.625H56.8881V47.875H41.1381V21.6381H38.5131V47.875H30.625V50.5H38.5131" fill="#D3D3D3"/>
<path d="M49.6955 21.6382H40.3899C41.7549 21.6382 42.7261 22.3207 43.0805 23.3313L47.6874 36.0731V56.9287C47.6874 56.9287 49.0051 55.8117 49.0051 53.7301C49.0051 55.8012 50.3334 56.9037 50.3334 56.9037V36.0731L54.9455 23.3313C55.313 22.3076 56.2711 21.6382 57.3605 21.6382H49.6955Z" fill="#CA0B4A"/>
</svg>
