<svg width="102" height="120" viewBox="0 0 102 120" fill="none" xmlns="http://www.w3.org/2000/svg">
<path d="M7.072 103.926V105.395H4.654V113H2.834V105.395H0.416V103.926H7.072ZM11.5979 113.117C10.9046 113.117 10.2806 112.965 9.72593 112.662C9.17126 112.35 8.7336 111.912 8.41293 111.349C8.10093 110.786 7.94493 110.136 7.94493 109.399C7.94493 108.662 8.10526 108.012 8.42593 107.449C8.75526 106.886 9.2016 106.452 9.76493 106.149C10.3283 105.837 10.9566 105.681 11.6499 105.681C12.3433 105.681 12.9716 105.837 13.5349 106.149C14.0983 106.452 14.5403 106.886 14.8609 107.449C15.1903 108.012 15.3549 108.662 15.3549 109.399C15.3549 110.136 15.1859 110.786 14.8479 111.349C14.5186 111.912 14.0679 112.35 13.4959 112.662C12.9326 112.965 12.2999 113.117 11.5979 113.117ZM11.5979 111.531C11.9273 111.531 12.2349 111.453 12.5209 111.297C12.8156 111.132 13.0496 110.89 13.2229 110.569C13.3963 110.248 13.4829 109.858 13.4829 109.399C13.4829 108.714 13.3009 108.19 12.9369 107.826C12.5816 107.453 12.1439 107.267 11.6239 107.267C11.1039 107.267 10.6663 107.453 10.3109 107.826C9.96426 108.19 9.79093 108.714 9.79093 109.399C9.79093 110.084 9.95993 110.612 10.2979 110.985C10.6446 111.349 11.0779 111.531 11.5979 111.531ZM19.888 113.117C19.1946 113.117 18.5706 112.965 18.016 112.662C17.4613 112.35 17.0236 111.912 16.703 111.349C16.391 110.786 16.235 110.136 16.235 109.399C16.235 108.662 16.3953 108.012 16.716 107.449C17.0453 106.886 17.4916 106.452 18.055 106.149C18.6183 105.837 19.2466 105.681 19.94 105.681C20.6333 105.681 21.2616 105.837 21.825 106.149C22.3883 106.452 22.8303 106.886 23.151 107.449C23.4803 108.012 23.645 108.662 23.645 109.399C23.645 110.136 23.476 110.786 23.138 111.349C22.8086 111.912 22.358 112.35 21.786 112.662C21.2226 112.965 20.59 113.117 19.888 113.117ZM19.888 111.531C20.2173 111.531 20.525 111.453 20.811 111.297C21.1056 111.132 21.3396 110.89 21.513 110.569C21.6863 110.248 21.773 109.858 21.773 109.399C21.773 108.714 21.591 108.19 21.227 107.826C20.8716 107.453 20.434 107.267 19.914 107.267C19.394 107.267 18.9563 107.453 18.601 107.826C18.2543 108.19 18.081 108.714 18.081 109.399C18.081 110.084 18.25 110.612 18.588 110.985C18.9346 111.349 19.368 111.531 19.888 111.531ZM26.8 103.38V113H24.98V103.38H26.8ZM31.3542 113.117C30.7648 113.117 30.2362 113.013 29.7682 112.805C29.3002 112.588 28.9275 112.298 28.6502 111.934C28.3815 111.57 28.2342 111.167 28.2082 110.725H30.0412C30.0758 111.002 30.2102 111.232 30.4442 111.414C30.6868 111.596 30.9858 111.687 31.3412 111.687C31.6878 111.687 31.9565 111.618 32.1472 111.479C32.3465 111.34 32.4462 111.163 32.4462 110.946C32.4462 110.712 32.3248 110.539 32.0822 110.426C31.8482 110.305 31.4712 110.175 30.9512 110.036C30.4138 109.906 29.9718 109.772 29.6252 109.633C29.2872 109.494 28.9925 109.282 28.7412 108.996C28.4985 108.71 28.3772 108.324 28.3772 107.839C28.3772 107.44 28.4898 107.076 28.7152 106.747C28.9492 106.418 29.2785 106.158 29.7032 105.967C30.1365 105.776 30.6435 105.681 31.2242 105.681C32.0822 105.681 32.7668 105.898 33.2782 106.331C33.7895 106.756 34.0712 107.332 34.1232 108.06H32.3812C32.3552 107.774 32.2338 107.549 32.0172 107.384C31.8092 107.211 31.5275 107.124 31.1722 107.124C30.8428 107.124 30.5872 107.185 30.4052 107.306C30.2318 107.427 30.1452 107.596 30.1452 107.813C30.1452 108.056 30.2665 108.242 30.5092 108.372C30.7518 108.493 31.1288 108.619 31.6402 108.749C32.1602 108.879 32.5892 109.013 32.9272 109.152C33.2652 109.291 33.5555 109.507 33.7982 109.802C34.0495 110.088 34.1795 110.469 34.1882 110.946C34.1882 111.362 34.0712 111.735 33.8372 112.064C33.6118 112.393 33.2825 112.653 32.8492 112.844C32.4245 113.026 31.9262 113.117 31.3542 113.117ZM38.3118 109.373C38.3118 108.645 38.4548 107.999 38.7408 107.436C39.0355 106.873 39.4341 106.439 39.9368 106.136C40.4395 105.833 40.9985 105.681 41.6138 105.681C42.0818 105.681 42.5281 105.785 42.9528 105.993C43.3775 106.192 43.7155 106.461 43.9668 106.799V103.38H45.8128V113H43.9668V111.934C43.7415 112.289 43.4251 112.575 43.0178 112.792C42.6105 113.009 42.1381 113.117 41.6008 113.117C40.9941 113.117 40.4395 112.961 39.9368 112.649C39.4341 112.337 39.0355 111.899 38.7408 111.336C38.4548 110.764 38.3118 110.11 38.3118 109.373ZM43.9798 109.399C43.9798 108.957 43.8931 108.58 43.7198 108.268C43.5465 107.947 43.3125 107.705 43.0178 107.54C42.7231 107.367 42.4068 107.28 42.0688 107.28C41.7308 107.28 41.4188 107.362 41.1328 107.527C40.8468 107.692 40.6128 107.934 40.4308 108.255C40.2575 108.567 40.1708 108.94 40.1708 109.373C40.1708 109.806 40.2575 110.188 40.4308 110.517C40.6128 110.838 40.8468 111.085 41.1328 111.258C41.4275 111.431 41.7395 111.518 42.0688 111.518C42.4068 111.518 42.7231 111.436 43.0178 111.271C43.3125 111.098 43.5465 110.855 43.7198 110.543C43.8931 110.222 43.9798 109.841 43.9798 109.399ZM54.2854 109.243C54.2854 109.503 54.268 109.737 54.2334 109.945H48.9684C49.0117 110.465 49.1937 110.872 49.5144 111.167C49.835 111.462 50.2294 111.609 50.6974 111.609C51.3734 111.609 51.8544 111.319 52.1404 110.738H54.1034C53.8954 111.431 53.4967 112.003 52.9074 112.454C52.318 112.896 51.5944 113.117 50.7364 113.117C50.043 113.117 49.419 112.965 48.8644 112.662C48.3184 112.35 47.8894 111.912 47.5774 111.349C47.274 110.786 47.1224 110.136 47.1224 109.399C47.1224 108.654 47.274 107.999 47.5774 107.436C47.8807 106.873 48.3054 106.439 48.8514 106.136C49.3974 105.833 50.0257 105.681 50.7364 105.681C51.421 105.681 52.032 105.828 52.5694 106.123C53.1154 106.418 53.5357 106.838 53.8304 107.384C54.1337 107.921 54.2854 108.541 54.2854 109.243ZM52.4004 108.723C52.3917 108.255 52.2227 107.882 51.8934 107.605C51.564 107.319 51.161 107.176 50.6844 107.176C50.2337 107.176 49.8524 107.315 49.5404 107.592C49.237 107.861 49.0507 108.238 48.9814 108.723H52.4004ZM57.7328 107.293V110.777C57.7328 111.02 57.7891 111.197 57.9018 111.31C58.0231 111.414 58.2225 111.466 58.4998 111.466H59.3448V113H58.2008C56.6668 113 55.8998 112.255 55.8998 110.764V107.293H55.0418V105.798H55.8998V104.017H57.7328V105.798H59.3448V107.293H57.7328ZM67.3488 109.243C67.3488 109.503 67.3315 109.737 67.2968 109.945H62.0318C62.0752 110.465 62.2572 110.872 62.5778 111.167C62.8985 111.462 63.2928 111.609 63.7608 111.609C64.4368 111.609 64.9178 111.319 65.2038 110.738H67.1668C66.9588 111.431 66.5602 112.003 65.9708 112.454C65.3815 112.896 64.6578 113.117 63.7998 113.117C63.1065 113.117 62.4825 112.965 61.9278 112.662C61.3818 112.35 60.9528 111.912 60.6408 111.349C60.3375 110.786 60.1858 110.136 60.1858 109.399C60.1858 108.654 60.3375 107.999 60.6408 107.436C60.9442 106.873 61.3688 106.439 61.9148 106.136C62.4608 105.833 63.0892 105.681 63.7998 105.681C64.4845 105.681 65.0955 105.828 65.6328 106.123C66.1788 106.418 66.5992 106.838 66.8938 107.384C67.1972 107.921 67.3488 108.541 67.3488 109.243ZM65.4638 108.723C65.4552 108.255 65.2862 107.882 64.9568 107.605C64.6275 107.319 64.2245 107.176 63.7478 107.176C63.2972 107.176 62.9158 107.315 62.6038 107.592C62.3005 107.861 62.1142 108.238 62.0448 108.723H65.4638ZM68.2093 109.399C68.2093 108.654 68.3609 108.004 68.6643 107.449C68.9676 106.886 69.3879 106.452 69.9253 106.149C70.4626 105.837 71.0779 105.681 71.7713 105.681C72.6639 105.681 73.4006 105.906 73.9813 106.357C74.5706 106.799 74.9649 107.423 75.1643 108.229H73.2013C73.0973 107.917 72.9196 107.674 72.6683 107.501C72.4256 107.319 72.1223 107.228 71.7583 107.228C71.2383 107.228 70.8266 107.419 70.5233 107.8C70.2199 108.173 70.0683 108.706 70.0683 109.399C70.0683 110.084 70.2199 110.617 70.5233 110.998C70.8266 111.371 71.2383 111.557 71.7583 111.557C72.4949 111.557 72.9759 111.228 73.2013 110.569H75.1643C74.9649 111.349 74.5706 111.969 73.9813 112.428C73.3919 112.887 72.6553 113.117 71.7713 113.117C71.0779 113.117 70.4626 112.965 69.9253 112.662C69.3879 112.35 68.9676 111.917 68.6643 111.362C68.3609 110.799 68.2093 110.144 68.2093 109.399ZM78.6166 107.293V110.777C78.6166 111.02 78.6729 111.197 78.7856 111.31C78.9069 111.414 79.1063 111.466 79.3836 111.466H80.2286V113H79.0846C77.5506 113 76.7836 112.255 76.7836 110.764V107.293H75.9256V105.798H76.7836V104.017H78.6166V105.798H80.2286V107.293H78.6166ZM82.4606 104.94C82.14 104.94 81.8713 104.84 81.6546 104.641C81.4466 104.433 81.3426 104.177 81.3426 103.874C81.3426 103.571 81.4466 103.319 81.6546 103.12C81.8713 102.912 82.14 102.808 82.4606 102.808C82.7813 102.808 83.0456 102.912 83.2536 103.12C83.4703 103.319 83.5786 103.571 83.5786 103.874C83.5786 104.177 83.4703 104.433 83.2536 104.641C83.0456 104.84 82.7813 104.94 82.4606 104.94ZM83.3576 105.798V113H81.5376V105.798H83.3576ZM88.3538 113.117C87.6605 113.117 87.0365 112.965 86.4818 112.662C85.9271 112.35 85.4895 111.912 85.1688 111.349C84.8568 110.786 84.7008 110.136 84.7008 109.399C84.7008 108.662 84.8611 108.012 85.1818 107.449C85.5111 106.886 85.9575 106.452 86.5208 106.149C87.0841 105.837 87.7125 105.681 88.4058 105.681C89.0991 105.681 89.7275 105.837 90.2908 106.149C90.8541 106.452 91.2961 106.886 91.6168 107.449C91.9461 108.012 92.1108 108.662 92.1108 109.399C92.1108 110.136 91.9418 110.786 91.6038 111.349C91.2745 111.912 90.8238 112.35 90.2518 112.662C89.6885 112.965 89.0558 113.117 88.3538 113.117ZM88.3538 111.531C88.6831 111.531 88.9908 111.453 89.2768 111.297C89.5715 111.132 89.8055 110.89 89.9788 110.569C90.1521 110.248 90.2388 109.858 90.2388 109.399C90.2388 108.714 90.0568 108.19 89.6928 107.826C89.3375 107.453 88.8998 107.267 88.3798 107.267C87.8598 107.267 87.4221 107.453 87.0668 107.826C86.7201 108.19 86.5468 108.714 86.5468 109.399C86.5468 110.084 86.7158 110.612 87.0538 110.985C87.4005 111.349 87.8338 111.531 88.3538 111.531ZM97.4368 105.694C98.2948 105.694 98.9882 105.967 99.5168 106.513C100.045 107.05 100.31 107.804 100.31 108.775V113H98.4898V109.022C98.4898 108.45 98.3468 108.012 98.0608 107.709C97.7748 107.397 97.3848 107.241 96.8908 107.241C96.3882 107.241 95.9895 107.397 95.6948 107.709C95.4088 108.012 95.2658 108.45 95.2658 109.022V113H93.4458V105.798H95.2658V106.695C95.5085 106.383 95.8162 106.14 96.1888 105.967C96.5702 105.785 96.9862 105.694 97.4368 105.694Z" fill="#183153"/>
<circle cx="51" cy="41" r="41" fill="#EFEBEB"/>
<g clip-path="url(#clip0_202_2439)">
<path d="M49.1333 38.9666H52.8666V45.0332H49.1333V38.9666Z" fill="#FF6723"/>
<path d="M54.4999 45.5001C54.4999 45.8095 54.377 46.1062 54.1582 46.325C53.9394 46.5438 53.6427 46.6667 53.3333 46.6667H48.6666C48.3572 46.6667 48.0604 46.5438 47.8416 46.325C47.6228 46.1062 47.4999 45.8095 47.4999 45.5001V43.1667H32.3333V53.6667C32.3333 54.2856 32.5791 54.8791 33.0167 55.3167C33.4543 55.7542 34.0477 56.0001 34.6666 56.0001H67.3333C67.9521 56.0001 68.5456 55.7542 68.9832 55.3167C69.4208 54.8791 69.6666 54.2856 69.6666 53.6667V43.1667H54.4999V45.5001Z" fill="#FF6723"/>
<path d="M69.3283 35.4434L64.5566 30.6717C64.3393 30.4562 64.046 30.3347 63.7399 30.3334H57.9066V28.0584C57.9224 27.4454 57.6963 26.8508 57.2771 26.4032C56.8579 25.9556 56.2793 25.6911 55.6666 25.6667H46.1466C45.8472 25.6785 45.5531 25.7503 45.2819 25.8777C45.0107 26.0052 44.7678 26.1858 44.5677 26.4088C44.3675 26.6318 44.2141 26.8927 44.1166 27.1761C44.0191 27.4594 43.9794 27.7595 43.9999 28.0584V30.3334H38.2599C38.1064 30.3325 37.9542 30.362 37.812 30.42C37.6699 30.4781 37.5406 30.5636 37.4316 30.6717L32.6716 35.4434C32.5635 35.5524 32.4779 35.6817 32.4199 35.8239C32.3618 35.966 32.3324 36.1182 32.3333 36.2717V40.8334H47.4999V38.5001C47.4999 38.1907 47.6229 37.8939 47.8416 37.6751C48.0604 37.4563 48.3572 37.3334 48.6666 37.3334H53.3333C53.6427 37.3334 53.9394 37.4563 54.1582 37.6751C54.377 37.8939 54.4999 38.1907 54.4999 38.5001V40.8334H69.6666V36.2601C69.6653 35.954 69.5438 35.6607 69.3283 35.4434ZM55.6666 30.3334H46.3333V28.0001H55.6666V30.3334Z" fill="#FF6723"/>
</g>
<defs>
<clipPath id="clip0_202_2439">
<rect width="42" height="42" fill="white" transform="translate(30 21)"/>
</clipPath>
</defs>
</svg>
