<svg width="115" height="120" viewBox="0 0 115 120" fill="none" xmlns="http://www.w3.org/2000/svg">
<path d="M8.424 103.926V113H6.604V109.139H2.717V113H0.897V103.926H2.717V107.657H6.604V103.926H8.424ZM16.9104 109.243C16.9104 109.503 16.893 109.737 16.8584 109.945H11.5934C11.6367 110.465 11.8187 110.872 12.1394 111.167C12.46 111.462 12.8544 111.609 13.3224 111.609C13.9984 111.609 14.4794 111.319 14.7654 110.738H16.7284C16.5204 111.431 16.1217 112.003 15.5324 112.454C14.943 112.896 14.2194 113.117 13.3614 113.117C12.668 113.117 12.044 112.965 11.4894 112.662C10.9434 112.35 10.5144 111.912 10.2024 111.349C9.89903 110.786 9.74736 110.136 9.74736 109.399C9.74736 108.654 9.89903 107.999 10.2024 107.436C10.5057 106.873 10.9304 106.439 11.4764 106.136C12.0224 105.833 12.6507 105.681 13.3614 105.681C14.046 105.681 14.657 105.828 15.1944 106.123C15.7404 106.418 16.1607 106.838 16.4554 107.384C16.7587 107.921 16.9104 108.541 16.9104 109.243ZM15.0254 108.723C15.0167 108.255 14.8477 107.882 14.5184 107.605C14.189 107.319 13.786 107.176 13.3094 107.176C12.8587 107.176 12.4774 107.315 12.1654 107.592C11.862 107.861 11.6757 108.238 11.6064 108.723H15.0254ZM20.0588 103.38V113H18.2388V103.38H20.0588ZM30.801 105.694C31.685 105.694 32.3956 105.967 32.933 106.513C33.479 107.05 33.752 107.804 33.752 108.775V113H31.932V109.022C31.932 108.459 31.789 108.03 31.503 107.735C31.217 107.432 30.827 107.28 30.333 107.28C29.839 107.28 29.4446 107.432 29.15 107.735C28.864 108.03 28.721 108.459 28.721 109.022V113H26.901V109.022C26.901 108.459 26.758 108.03 26.472 107.735C26.186 107.432 25.796 107.28 25.302 107.28C24.7993 107.28 24.4006 107.432 24.106 107.735C23.82 108.03 23.677 108.459 23.677 109.022V113H21.857V105.798H23.677V106.669C23.911 106.366 24.21 106.127 24.574 105.954C24.9466 105.781 25.354 105.694 25.796 105.694C26.3593 105.694 26.862 105.815 27.304 106.058C27.746 106.292 28.0883 106.63 28.331 107.072C28.565 106.656 28.903 106.322 29.345 106.071C29.7956 105.82 30.281 105.694 30.801 105.694ZM42.174 109.243C42.174 109.503 42.1567 109.737 42.122 109.945H36.857C36.9004 110.465 37.0824 110.872 37.403 111.167C37.7237 111.462 38.118 111.609 38.586 111.609C39.262 111.609 39.743 111.319 40.029 110.738H41.992C41.784 111.431 41.3854 112.003 40.796 112.454C40.2067 112.896 39.483 113.117 38.625 113.117C37.9317 113.117 37.3077 112.965 36.753 112.662C36.207 112.35 35.778 111.912 35.466 111.349C35.1627 110.786 35.011 110.136 35.011 109.399C35.011 108.654 35.1627 107.999 35.466 107.436C35.7694 106.873 36.194 106.439 36.74 106.136C37.286 105.833 37.9144 105.681 38.625 105.681C39.3097 105.681 39.9207 105.828 40.458 106.123C41.004 106.418 41.4244 106.838 41.719 107.384C42.0224 107.921 42.174 108.541 42.174 109.243ZM40.289 108.723C40.2804 108.255 40.1114 107.882 39.782 107.605C39.4527 107.319 39.0497 107.176 38.573 107.176C38.1224 107.176 37.741 107.315 37.429 107.592C37.1257 107.861 36.9394 108.238 36.87 108.723H40.289ZM45.6215 107.293V110.777C45.6215 111.02 45.6778 111.197 45.7905 111.31C45.9118 111.414 46.1111 111.466 46.3885 111.466H47.2335V113H46.0895C44.5555 113 43.7885 112.255 43.7885 110.764V107.293H42.9305V105.798H43.7885V104.017H45.6215V105.798H47.2335V107.293H45.6215ZM54.8122 103.926C55.7655 103.926 56.6018 104.112 57.3212 104.485C58.0492 104.858 58.6082 105.391 58.9982 106.084C59.3968 106.769 59.5962 107.566 59.5962 108.476C59.5962 109.386 59.3968 110.183 58.9982 110.868C58.6082 111.544 58.0492 112.068 57.3212 112.441C56.6018 112.814 55.7655 113 54.8122 113H51.6402V103.926H54.8122ZM54.7472 111.453C55.7005 111.453 56.4372 111.193 56.9572 110.673C57.4772 110.153 57.7372 109.421 57.7372 108.476C57.7372 107.531 57.4772 106.795 56.9572 106.266C56.4372 105.729 55.7005 105.46 54.7472 105.46H53.4602V111.453H54.7472ZM67.6535 109.243C67.6535 109.503 67.6362 109.737 67.6015 109.945H62.3365C62.3799 110.465 62.5619 110.872 62.8825 111.167C63.2032 111.462 63.5975 111.609 64.0655 111.609C64.7415 111.609 65.2225 111.319 65.5085 110.738H67.4715C67.2635 111.431 66.8649 112.003 66.2755 112.454C65.6862 112.896 64.9625 113.117 64.1045 113.117C63.4112 113.117 62.7872 112.965 62.2325 112.662C61.6865 112.35 61.2575 111.912 60.9455 111.349C60.6422 110.786 60.4905 110.136 60.4905 109.399C60.4905 108.654 60.6422 107.999 60.9455 107.436C61.2489 106.873 61.6735 106.439 62.2195 106.136C62.7655 105.833 63.3939 105.681 64.1045 105.681C64.7892 105.681 65.4002 105.828 65.9375 106.123C66.4835 106.418 66.9039 106.838 67.1985 107.384C67.5019 107.921 67.6535 108.541 67.6535 109.243ZM65.7685 108.723C65.7599 108.255 65.5909 107.882 65.2615 107.605C64.9322 107.319 64.5292 107.176 64.0525 107.176C63.6019 107.176 63.2205 107.315 62.9085 107.592C62.6052 107.861 62.4189 108.238 62.3495 108.723H65.7685ZM71.101 107.293V110.777C71.101 111.02 71.1573 111.197 71.27 111.31C71.3913 111.414 71.5906 111.466 71.868 111.466H72.713V113H71.569C70.035 113 69.268 112.255 69.268 110.764V107.293H68.41V105.798H69.268V104.017H71.101V105.798H72.713V107.293H71.101ZM80.717 109.243C80.717 109.503 80.6997 109.737 80.665 109.945H75.4C75.4433 110.465 75.6253 110.872 75.946 111.167C76.2667 111.462 76.661 111.609 77.129 111.609C77.805 111.609 78.286 111.319 78.572 110.738H80.535C80.327 111.431 79.9283 112.003 79.339 112.454C78.7497 112.896 78.026 113.117 77.168 113.117C76.4747 113.117 75.8507 112.965 75.296 112.662C74.75 112.35 74.321 111.912 74.009 111.349C73.7057 110.786 73.554 110.136 73.554 109.399C73.554 108.654 73.7057 107.999 74.009 107.436C74.3123 106.873 74.737 106.439 75.283 106.136C75.829 105.833 76.4573 105.681 77.168 105.681C77.8527 105.681 78.4637 105.828 79.001 106.123C79.547 106.418 79.9673 106.838 80.262 107.384C80.5653 107.921 80.717 108.541 80.717 109.243ZM78.832 108.723C78.8233 108.255 78.6543 107.882 78.325 107.605C77.9957 107.319 77.5927 107.176 77.116 107.176C76.6653 107.176 76.284 107.315 75.972 107.592C75.6687 107.861 75.4823 108.238 75.413 108.723H78.832ZM81.5774 109.399C81.5774 108.654 81.7291 108.004 82.0324 107.449C82.3358 106.886 82.7561 106.452 83.2934 106.149C83.8308 105.837 84.4461 105.681 85.1394 105.681C86.0321 105.681 86.7688 105.906 87.3494 106.357C87.9388 106.799 88.3331 107.423 88.5324 108.229H86.5694C86.4654 107.917 86.2878 107.674 86.0364 107.501C85.7938 107.319 85.4904 107.228 85.1264 107.228C84.6064 107.228 84.1948 107.419 83.8914 107.8C83.5881 108.173 83.4364 108.706 83.4364 109.399C83.4364 110.084 83.5881 110.617 83.8914 110.998C84.1948 111.371 84.6064 111.557 85.1264 111.557C85.8631 111.557 86.3441 111.228 86.5694 110.569H88.5324C88.3331 111.349 87.9388 111.969 87.3494 112.428C86.7601 112.887 86.0234 113.117 85.1394 113.117C84.4461 113.117 83.8308 112.965 83.2934 112.662C82.7561 112.35 82.3358 111.917 82.0324 111.362C81.7291 110.799 81.5774 110.144 81.5774 109.399ZM91.9848 107.293V110.777C91.9848 111.02 92.0411 111.197 92.1538 111.31C92.2751 111.414 92.4744 111.466 92.7518 111.466H93.5968V113H92.4528C90.9188 113 90.1518 112.255 90.1518 110.764V107.293H89.2938V105.798H90.1518V104.017H91.9848V105.798H93.5968V107.293H91.9848ZM95.8288 104.94C95.5081 104.94 95.2395 104.84 95.0228 104.641C94.8148 104.433 94.7108 104.177 94.7108 103.874C94.7108 103.571 94.8148 103.319 95.0228 103.12C95.2395 102.912 95.5081 102.808 95.8288 102.808C96.1495 102.808 96.4138 102.912 96.6218 103.12C96.8385 103.319 96.9468 103.571 96.9468 103.874C96.9468 104.177 96.8385 104.433 96.6218 104.641C96.4138 104.84 96.1495 104.94 95.8288 104.94ZM96.7258 105.798V113H94.9058V105.798H96.7258ZM101.722 113.117C101.029 113.117 100.405 112.965 99.85 112.662C99.2953 112.35 98.8576 111.912 98.537 111.349C98.225 110.786 98.069 110.136 98.069 109.399C98.069 108.662 98.2293 108.012 98.55 107.449C98.8793 106.886 99.3256 106.452 99.889 106.149C100.452 105.837 101.081 105.681 101.774 105.681C102.467 105.681 103.096 105.837 103.659 106.149C104.222 106.452 104.664 106.886 104.985 107.449C105.314 108.012 105.479 108.662 105.479 109.399C105.479 110.136 105.31 110.786 104.972 111.349C104.643 111.912 104.192 112.35 103.62 112.662C103.057 112.965 102.424 113.117 101.722 113.117ZM101.722 111.531C102.051 111.531 102.359 111.453 102.645 111.297C102.94 111.132 103.174 110.89 103.347 110.569C103.52 110.248 103.607 109.858 103.607 109.399C103.607 108.714 103.425 108.19 103.061 107.826C102.706 107.453 102.268 107.267 101.748 107.267C101.228 107.267 100.79 107.453 100.435 107.826C100.088 108.19 99.915 108.714 99.915 109.399C99.915 110.084 100.084 110.612 100.422 110.985C100.769 111.349 101.202 111.531 101.722 111.531ZM110.805 105.694C111.663 105.694 112.356 105.967 112.885 106.513C113.414 107.05 113.678 107.804 113.678 108.775V113H111.858V109.022C111.858 108.45 111.715 108.012 111.429 107.709C111.143 107.397 110.753 107.241 110.259 107.241C109.756 107.241 109.358 107.397 109.063 107.709C108.777 108.012 108.634 108.45 108.634 109.022V113H106.814V105.798H108.634V106.695C108.877 106.383 109.184 106.14 109.557 105.967C109.938 105.785 110.354 105.694 110.805 105.694Z" fill="#183153"/>
<circle cx="55" cy="41" r="41" fill="#EFEBEB"/>
<path d="M40.8413 39.6646L69.2832 39.7631V44.4159C69.2832 51.966 63.5574 58.0823 56.5257 58.0823H53.4676C46.4391 58.0823 40.7429 51.966 40.71 44.4487L40.8413 39.6646ZM38.3016 37.0298L38.1047 44.4159C38.1047 53.3967 44.9724 60.6876 53.4643 60.6876H56.5224C65.0143 60.6876 71.8819 53.3999 71.8819 44.4159V37.161L38.3016 37.0298Z" fill="#FF6723"/>
<path d="M57.4347 60.6875H52.4899C50.9608 60.6875 49.7566 59.4505 49.7566 57.9542V57.7574C49.7566 57.2028 50.1799 56.7795 50.7344 56.7795H59.1967C59.7513 56.7795 60.1746 57.2028 60.1746 57.7574V57.9542C60.168 59.4505 58.9342 60.6875 57.4347 60.6875Z" fill="#B0805C"/>
<path d="M70.786 40.6784C70.307 40.4816 69.7885 40.4684 69.2799 40.5767V44.4191C69.2799 45.9416 69.0437 47.405 68.6138 48.7766C68.8041 48.4747 69.0109 48.1761 69.2832 47.9464C69.9034 47.4247 70.8549 47.3459 71.5538 47.7528C71.5571 47.7528 71.5571 47.7561 71.5604 47.7594C71.7737 46.6831 71.8852 45.5675 71.8852 44.4223V41.6037C71.5998 41.2001 71.2421 40.8655 70.786 40.6784ZM41.2384 48.2811C40.8942 47.0324 40.7166 45.7438 40.7101 44.4486L40.7724 42.2173C40.523 41.63 40.1227 41.0591 39.5091 40.9212C39.053 40.8195 38.5805 40.9934 38.1934 41.2559L38.1113 44.4158C38.1113 45.3444 38.1901 46.2566 38.3312 47.1425C39.3845 47.2016 40.418 47.6084 41.2384 48.2811Z" fill="#FF6723"/>
<path d="M54.9967 36.2029C62.6978 36.2029 74.4873 39.9894 74.4873 39.9894C74.6744 40.6555 74.5201 41.6366 74.5201 41.6366C74.5201 44.639 65.7789 47.0704 54.9967 47.0704C44.2145 47.0704 35.4733 44.6357 35.4733 41.6366C35.4733 41.6366 35.3486 41.0887 35.4962 40.0715C35.493 40.0715 47.7845 36.2029 54.9967 36.2029Z" fill="#F5B9A0"/>
<path d="M72.394 38.0338C71.997 33.0134 69.1226 24.7939 60.4634 22.3264V22.1919C60.4634 21.703 60.0204 21.3125 59.4659 21.3125H50.5343C49.9798 21.3125 49.5368 21.703 49.5368 22.1919V22.3198C40.9137 24.7578 38.0131 32.8953 37.6095 37.932C37.1042 38.7064 35.4734 39.3463 35.4734 40.2617C35.4734 43.2641 44.2146 45.6955 54.9968 45.6955C65.779 45.6955 74.5203 43.2608 74.5203 40.2617C74.5235 39.0837 72.8271 38.8934 72.394 38.0338Z" fill="#F44336"/>
<path d="M46.9609 32.7444C47.8862 31.6058 48.9395 29.7651 49.3267 27.0154C49.5203 25.6537 49.5334 23.0976 49.5334 22.3232C48.5468 22.6002 47.5887 22.9704 46.6722 23.429C47.0233 24.3772 47.4728 25.8669 47.417 27.7996C47.3612 29.6633 46.8625 31.2515 46.3703 32.3868C46.2095 32.7576 46.705 33.0594 46.9609 32.7444ZM62.9997 32.7444C63.2556 33.0594 63.7511 32.7576 63.5903 32.3868C63.0981 31.2515 62.5994 29.6633 62.5436 27.7996C62.4878 25.8571 62.9406 24.3608 63.2917 23.4158C62.4123 22.9729 61.4542 22.6021 60.4141 22.3101C60.3812 23.0746 60.2927 25.6733 60.6306 27.0121C61.3394 29.8208 62.0744 31.6091 62.9997 32.7444Z" fill="#F5B9A0"/>
<path d="M45.0382 30.3457C44.1174 31.0931 43.2871 31.9454 42.5641 32.8854C42.2262 33.3251 41.862 34.2045 41.1138 34.0371C40.3657 33.8698 40.3854 33.161 40.5363 32.4687C40.9301 30.6968 41.8423 28.8527 43.3516 27.8159C44.3163 27.1531 45.0907 27.1826 45.5895 27.8749C46.3048 28.8659 45.8815 29.6599 45.0382 30.3457ZM46.8134 42.1648C49.5335 42.4634 49.0643 43.2935 46.413 43.4773C43.7651 43.6577 39.0204 42.7587 37.9638 41.4396C37.4355 40.7834 38.2493 39.799 39.4371 40.2649C41.8062 41.1968 41.8554 41.6201 46.8134 42.1648Z" fill="#FF7555"/>
<path d="M60.3386 32.5738H57.3593C57.0804 32.5738 56.8572 32.3376 56.8572 32.0456V28.9152C56.8572 28.6232 56.6308 28.387 56.3552 28.387H53.6449C53.366 28.387 53.1429 28.6232 53.1429 28.9152V32.0456C53.1429 32.3376 52.9165 32.5738 52.6408 32.5738H49.6615C49.3825 32.5738 49.1594 32.8101 49.1594 33.1021V35.947C49.1594 36.239 49.3858 36.4752 49.6615 36.4752H52.6408C52.9197 36.4752 53.1429 36.7115 53.1429 37.0035V40.1338C53.1429 40.4259 53.3693 40.6621 53.6449 40.6621H56.3552C56.6341 40.6621 56.8572 40.4259 56.8572 40.1338V37.0035C56.8572 36.7115 57.0836 36.4752 57.3593 36.4752H60.3386C60.6175 36.4752 60.8407 36.239 60.8407 35.947V33.1021C60.8407 32.8101 60.6175 32.5738 60.3386 32.5738Z" fill="#FAFAFA"/>
</svg>
