<svg width="125" height="121" viewBox="0 0 125 121" fill="none" xmlns="http://www.w3.org/2000/svg">
<path d="M7.215 107.656C7.007 107.275 6.721 106.984 6.357 106.785C5.993 106.586 5.56833 106.486 5.083 106.486C4.54567 106.486 4.069 106.607 3.653 106.85C3.237 107.093 2.912 107.439 2.678 107.89C2.444 108.341 2.327 108.861 2.327 109.45C2.327 110.057 2.444 110.585 2.678 111.036C2.92067 111.487 3.25433 111.833 3.679 112.076C4.10367 112.319 4.59767 112.44 5.161 112.44C5.85433 112.44 6.422 112.258 6.864 111.894C7.306 111.521 7.59633 111.006 7.735 110.347H4.615V108.956H9.529V110.542C9.40767 111.175 9.14767 111.76 8.749 112.297C8.35033 112.834 7.83467 113.268 7.202 113.597C6.578 113.918 5.876 114.078 5.096 114.078C4.22067 114.078 3.42767 113.883 2.717 113.493C2.015 113.094 1.46033 112.544 1.053 111.842C0.654333 111.14 0.455 110.343 0.455 109.45C0.455 108.557 0.654333 107.76 1.053 107.058C1.46033 106.347 2.015 105.797 2.717 105.407C3.42767 105.008 4.21633 104.809 5.083 104.809C6.10567 104.809 6.994 105.06 7.748 105.563C8.502 106.057 9.022 106.755 9.308 107.656H7.215ZM14.0735 114.117C13.3802 114.117 12.7562 113.965 12.2015 113.662C11.6468 113.35 11.2092 112.912 10.8885 112.349C10.5765 111.786 10.4205 111.136 10.4205 110.399C10.4205 109.662 10.5808 109.012 10.9015 108.449C11.2308 107.886 11.6772 107.452 12.2405 107.149C12.8038 106.837 13.4322 106.681 14.1255 106.681C14.8188 106.681 15.4472 106.837 16.0105 107.149C16.5738 107.452 17.0158 107.886 17.3365 108.449C17.6658 109.012 17.8305 109.662 17.8305 110.399C17.8305 111.136 17.6615 111.786 17.3235 112.349C16.9942 112.912 16.5435 113.35 15.9715 113.662C15.4082 113.965 14.7755 114.117 14.0735 114.117ZM14.0735 112.531C14.4028 112.531 14.7105 112.453 14.9965 112.297C15.2912 112.132 15.5252 111.89 15.6985 111.569C15.8718 111.248 15.9585 110.858 15.9585 110.399C15.9585 109.714 15.7765 109.19 15.4125 108.826C15.0572 108.453 14.6195 108.267 14.0995 108.267C13.5795 108.267 13.1418 108.453 12.7865 108.826C12.4398 109.19 12.2665 109.714 12.2665 110.399C12.2665 111.084 12.4355 111.612 12.7735 111.985C13.1202 112.349 13.5535 112.531 14.0735 112.531ZM21.9866 106.681C22.5239 106.681 22.9962 106.789 23.4036 107.006C23.8109 107.214 24.1316 107.487 24.3656 107.825V106.798H26.1986V114.052C26.1986 114.719 26.0642 115.313 25.7956 115.833C25.5269 116.362 25.1239 116.778 24.5866 117.081C24.0492 117.393 23.3992 117.549 22.6366 117.549C21.6139 117.549 20.7732 117.311 20.1146 116.834C19.4646 116.357 19.0962 115.707 19.0096 114.884H20.8166C20.9119 115.213 21.1156 115.473 21.4276 115.664C21.7482 115.863 22.1339 115.963 22.5846 115.963C23.1132 115.963 23.5422 115.803 23.8716 115.482C24.2009 115.17 24.3656 114.693 24.3656 114.052V112.934C24.1316 113.272 23.8066 113.554 23.3906 113.779C22.9832 114.004 22.5152 114.117 21.9866 114.117C21.3799 114.117 20.8252 113.961 20.3226 113.649C19.8199 113.337 19.4212 112.899 19.1266 112.336C18.8406 111.764 18.6976 111.11 18.6976 110.373C18.6976 109.645 18.8406 108.999 19.1266 108.436C19.4212 107.873 19.8156 107.439 20.3096 107.136C20.8122 106.833 21.3712 106.681 21.9866 106.681ZM24.3656 110.399C24.3656 109.957 24.2789 109.58 24.1056 109.268C23.9322 108.947 23.6982 108.705 23.4036 108.54C23.1089 108.367 22.7926 108.28 22.4546 108.28C22.1166 108.28 21.8046 108.362 21.5186 108.527C21.2326 108.692 20.9986 108.934 20.8166 109.255C20.6432 109.567 20.5566 109.94 20.5566 110.373C20.5566 110.806 20.6432 111.188 20.8166 111.517C20.9986 111.838 21.2326 112.085 21.5186 112.258C21.8132 112.431 22.1252 112.518 22.4546 112.518C22.7926 112.518 23.1089 112.436 23.4036 112.271C23.6982 112.098 23.9322 111.855 24.1056 111.543C24.2789 111.222 24.3656 110.841 24.3656 110.399ZM30.7971 106.681C31.3344 106.681 31.8068 106.789 32.2141 107.006C32.6214 107.214 32.9421 107.487 33.1761 107.825V106.798H35.0091V114.052C35.0091 114.719 34.8748 115.313 34.6061 115.833C34.3374 116.362 33.9344 116.778 33.3971 117.081C32.8598 117.393 32.2098 117.549 31.4471 117.549C30.4244 117.549 29.5838 117.311 28.9251 116.834C28.2751 116.357 27.9068 115.707 27.8201 114.884H29.6271C29.7224 115.213 29.9261 115.473 30.2381 115.664C30.5588 115.863 30.9444 115.963 31.3951 115.963C31.9238 115.963 32.3528 115.803 32.6821 115.482C33.0114 115.17 33.1761 114.693 33.1761 114.052V112.934C32.9421 113.272 32.6171 113.554 32.2011 113.779C31.7938 114.004 31.3258 114.117 30.7971 114.117C30.1904 114.117 29.6358 113.961 29.1331 113.649C28.6304 113.337 28.2318 112.899 27.9371 112.336C27.6511 111.764 27.5081 111.11 27.5081 110.373C27.5081 109.645 27.6511 108.999 27.9371 108.436C28.2318 107.873 28.6261 107.439 29.1201 107.136C29.6228 106.833 30.1818 106.681 30.7971 106.681ZM33.1761 110.399C33.1761 109.957 33.0894 109.58 32.9161 109.268C32.7428 108.947 32.5088 108.705 32.2141 108.54C31.9194 108.367 31.6031 108.28 31.2651 108.28C30.9271 108.28 30.6151 108.362 30.3291 108.527C30.0431 108.692 29.8091 108.934 29.6271 109.255C29.4538 109.567 29.3671 109.94 29.3671 110.373C29.3671 110.806 29.4538 111.188 29.6271 111.517C29.8091 111.838 30.0431 112.085 30.3291 112.258C30.6238 112.431 30.9358 112.518 31.2651 112.518C31.6031 112.518 31.9194 112.436 32.2141 112.271C32.5088 112.098 32.7428 111.855 32.9161 111.543C33.0894 111.222 33.1761 110.841 33.1761 110.399ZM38.6066 104.38V114H36.7866V104.38H38.6066ZM47.0998 110.243C47.0998 110.503 47.0825 110.737 47.0478 110.945H41.7828C41.8261 111.465 42.0081 111.872 42.3288 112.167C42.6495 112.462 43.0438 112.609 43.5118 112.609C44.1878 112.609 44.6688 112.319 44.9548 111.738H46.9178C46.7098 112.431 46.3111 113.003 45.7218 113.454C45.1325 113.896 44.4088 114.117 43.5508 114.117C42.8575 114.117 42.2335 113.965 41.6788 113.662C41.1328 113.35 40.7038 112.912 40.3918 112.349C40.0885 111.786 39.9368 111.136 39.9368 110.399C39.9368 109.654 40.0885 108.999 40.3918 108.436C40.6951 107.873 41.1198 107.439 41.6658 107.136C42.2118 106.833 42.8401 106.681 43.5508 106.681C44.2355 106.681 44.8465 106.828 45.3838 107.123C45.9298 107.418 46.3501 107.838 46.6448 108.384C46.9481 108.921 47.0998 109.541 47.0998 110.243ZM45.2148 109.723C45.2061 109.255 45.0371 108.882 44.7078 108.605C44.3785 108.319 43.9755 108.176 43.4988 108.176C43.0481 108.176 42.6668 108.315 42.3548 108.592C42.0515 108.861 41.8651 109.238 41.7958 109.723H45.2148ZM51.1843 114.117C50.5949 114.117 50.0663 114.013 49.5983 113.805C49.1303 113.588 48.7576 113.298 48.4803 112.934C48.2116 112.57 48.0643 112.167 48.0383 111.725H49.8713C49.9059 112.002 50.0403 112.232 50.2743 112.414C50.5169 112.596 50.8159 112.687 51.1713 112.687C51.5179 112.687 51.7866 112.618 51.9773 112.479C52.1766 112.34 52.2763 112.163 52.2763 111.946C52.2763 111.712 52.1549 111.539 51.9123 111.426C51.6783 111.305 51.3013 111.175 50.7812 111.036C50.2439 110.906 49.8019 110.772 49.4553 110.633C49.1173 110.494 48.8226 110.282 48.5713 109.996C48.3286 109.71 48.2073 109.324 48.2073 108.839C48.2073 108.44 48.3199 108.076 48.5453 107.747C48.7793 107.418 49.1086 107.158 49.5333 106.967C49.9666 106.776 50.4736 106.681 51.0543 106.681C51.9123 106.681 52.5969 106.898 53.1083 107.331C53.6196 107.756 53.9013 108.332 53.9533 109.06H52.2113C52.1853 108.774 52.0639 108.549 51.8473 108.384C51.6393 108.211 51.3576 108.124 51.0023 108.124C50.6729 108.124 50.4173 108.185 50.2353 108.306C50.0619 108.427 49.9753 108.596 49.9753 108.813C49.9753 109.056 50.0966 109.242 50.3393 109.372C50.5819 109.493 50.9589 109.619 51.4703 109.749C51.9903 109.879 52.4193 110.013 52.7573 110.152C53.0953 110.291 53.3856 110.507 53.6283 110.802C53.8796 111.088 54.0096 111.469 54.0183 111.946C54.0183 112.362 53.9013 112.735 53.6673 113.064C53.4419 113.393 53.1126 113.653 52.6793 113.844C52.2546 114.026 51.7563 114.117 51.1843 114.117ZM61.2395 110.373C61.2395 109.645 61.3825 108.999 61.6685 108.436C61.9632 107.873 62.3619 107.439 62.8645 107.136C63.3672 106.833 63.9262 106.681 64.5415 106.681C65.0095 106.681 65.4559 106.785 65.8805 106.993C66.3052 107.192 66.6432 107.461 66.8945 107.799V104.38H68.7405V114H66.8945V112.934C66.6692 113.289 66.3529 113.575 65.9455 113.792C65.5382 114.009 65.0659 114.117 64.5285 114.117C63.9219 114.117 63.3672 113.961 62.8645 113.649C62.3619 113.337 61.9632 112.899 61.6685 112.336C61.3825 111.764 61.2395 111.11 61.2395 110.373ZM66.9075 110.399C66.9075 109.957 66.8209 109.58 66.6475 109.268C66.4742 108.947 66.2402 108.705 65.9455 108.54C65.6509 108.367 65.3345 108.28 64.9965 108.28C64.6585 108.28 64.3465 108.362 64.0605 108.527C63.7745 108.692 63.5405 108.934 63.3585 109.255C63.1852 109.567 63.0985 109.94 63.0985 110.373C63.0985 110.806 63.1852 111.188 63.3585 111.517C63.5405 111.838 63.7745 112.085 64.0605 112.258C64.3552 112.431 64.6672 112.518 64.9965 112.518C65.3345 112.518 65.6509 112.436 65.9455 112.271C66.2402 112.098 66.4742 111.855 66.6475 111.543C66.8209 111.222 66.9075 110.841 66.9075 110.399ZM77.2131 110.243C77.2131 110.503 77.1958 110.737 77.1611 110.945H71.8961C71.9394 111.465 72.1214 111.872 72.4421 112.167C72.7628 112.462 73.1571 112.609 73.6251 112.609C74.3011 112.609 74.7821 112.319 75.0681 111.738H77.0311C76.8231 112.431 76.4244 113.003 75.8351 113.454C75.2458 113.896 74.5221 114.117 73.6641 114.117C72.9708 114.117 72.3468 113.965 71.7921 113.662C71.2461 113.35 70.8171 112.912 70.5051 112.349C70.2018 111.786 70.0501 111.136 70.0501 110.399C70.0501 109.654 70.2018 108.999 70.5051 108.436C70.8084 107.873 71.2331 107.439 71.7791 107.136C72.3251 106.833 72.9534 106.681 73.6641 106.681C74.3488 106.681 74.9598 106.828 75.4971 107.123C76.0431 107.418 76.4634 107.838 76.7581 108.384C77.0614 108.921 77.2131 109.541 77.2131 110.243ZM75.3281 109.723C75.3194 109.255 75.1504 108.882 74.8211 108.605C74.4918 108.319 74.0888 108.176 73.6121 108.176C73.1614 108.176 72.7801 108.315 72.4681 108.592C72.1648 108.861 71.9784 109.238 71.9091 109.723H75.3281ZM80.6605 108.293V111.777C80.6605 112.02 80.7169 112.197 80.8295 112.31C80.9509 112.414 81.1502 112.466 81.4275 112.466H82.2725V114H81.1285C79.5945 114 78.8275 113.255 78.8275 111.764V108.293H77.9695V106.798H78.8275V105.017H80.6605V106.798H82.2725V108.293H80.6605ZM90.2766 110.243C90.2766 110.503 90.2592 110.737 90.2246 110.945H84.9596C85.0029 111.465 85.1849 111.872 85.5056 112.167C85.8262 112.462 86.2206 112.609 86.6886 112.609C87.3646 112.609 87.8456 112.319 88.1316 111.738H90.0946C89.8866 112.431 89.4879 113.003 88.8986 113.454C88.3092 113.896 87.5856 114.117 86.7276 114.117C86.0342 114.117 85.4102 113.965 84.8556 113.662C84.3096 113.35 83.8806 112.912 83.5686 112.349C83.2652 111.786 83.1136 111.136 83.1136 110.399C83.1136 109.654 83.2652 108.999 83.5686 108.436C83.8719 107.873 84.2966 107.439 84.8426 107.136C85.3886 106.833 86.0169 106.681 86.7276 106.681C87.4122 106.681 88.0232 106.828 88.5606 107.123C89.1066 107.418 89.5269 107.838 89.8216 108.384C90.1249 108.921 90.2766 109.541 90.2766 110.243ZM88.3916 109.723C88.3829 109.255 88.2139 108.882 87.8846 108.605C87.5552 108.319 87.1522 108.176 86.6756 108.176C86.2249 108.176 85.8436 108.315 85.5316 108.592C85.2282 108.861 85.0419 109.238 84.9726 109.723H88.3916ZM91.137 110.399C91.137 109.654 91.2887 109.004 91.592 108.449C91.8953 107.886 92.3157 107.452 92.853 107.149C93.3903 106.837 94.0057 106.681 94.699 106.681C95.5917 106.681 96.3283 106.906 96.909 107.357C97.4983 107.799 97.8927 108.423 98.092 109.229H96.129C96.025 108.917 95.8473 108.674 95.596 108.501C95.3533 108.319 95.05 108.228 94.686 108.228C94.166 108.228 93.7543 108.419 93.451 108.8C93.1477 109.173 92.996 109.706 92.996 110.399C92.996 111.084 93.1477 111.617 93.451 111.998C93.7543 112.371 94.166 112.557 94.686 112.557C95.4227 112.557 95.9037 112.228 96.129 111.569H98.092C97.8927 112.349 97.4983 112.969 96.909 113.428C96.3197 113.887 95.583 114.117 94.699 114.117C94.0057 114.117 93.3903 113.965 92.853 113.662C92.3157 113.35 91.8953 112.917 91.592 112.362C91.2887 111.799 91.137 111.144 91.137 110.399ZM101.544 108.293V111.777C101.544 112.02 101.601 112.197 101.713 112.31C101.835 112.414 102.034 112.466 102.311 112.466H103.156V114H102.012C100.478 114 99.7113 113.255 99.7113 111.764V108.293H98.8533V106.798H99.7113V105.017H101.544V106.798H103.156V108.293H101.544ZM105.388 105.94C105.068 105.94 104.799 105.84 104.582 105.641C104.374 105.433 104.27 105.177 104.27 104.874C104.27 104.571 104.374 104.319 104.582 104.12C104.799 103.912 105.068 103.808 105.388 103.808C105.709 103.808 105.973 103.912 106.181 104.12C106.398 104.319 106.506 104.571 106.506 104.874C106.506 105.177 106.398 105.433 106.181 105.641C105.973 105.84 105.709 105.94 105.388 105.94ZM106.285 106.798V114H104.465V106.798H106.285ZM111.282 114.117C110.588 114.117 109.964 113.965 109.41 113.662C108.855 113.35 108.417 112.912 108.097 112.349C107.785 111.786 107.629 111.136 107.629 110.399C107.629 109.662 107.789 109.012 108.11 108.449C108.439 107.886 108.885 107.452 109.449 107.149C110.012 106.837 110.64 106.681 111.334 106.681C112.027 106.681 112.655 106.837 113.219 107.149C113.782 107.452 114.224 107.886 114.545 108.449C114.874 109.012 115.039 109.662 115.039 110.399C115.039 111.136 114.87 111.786 114.532 112.349C114.202 112.912 113.752 113.35 113.18 113.662C112.616 113.965 111.984 114.117 111.282 114.117ZM111.282 112.531C111.611 112.531 111.919 112.453 112.205 112.297C112.499 112.132 112.733 111.89 112.907 111.569C113.08 111.248 113.167 110.858 113.167 110.399C113.167 109.714 112.985 109.19 112.621 108.826C112.265 108.453 111.828 108.267 111.308 108.267C110.788 108.267 110.35 108.453 109.995 108.826C109.648 109.19 109.475 109.714 109.475 110.399C109.475 111.084 109.644 111.612 109.982 111.985C110.328 112.349 110.762 112.531 111.282 112.531ZM120.365 106.694C121.223 106.694 121.916 106.967 122.445 107.513C122.973 108.05 123.238 108.804 123.238 109.775V114H121.418V110.022C121.418 109.45 121.275 109.012 120.989 108.709C120.703 108.397 120.313 108.241 119.819 108.241C119.316 108.241 118.917 108.397 118.623 108.709C118.337 109.012 118.194 109.45 118.194 110.022V114H116.374V106.798H118.194V107.695C118.436 107.383 118.744 107.14 119.117 106.967C119.498 106.785 119.914 106.694 120.365 106.694Z" fill="#183153"/>
<circle cx="63" cy="41" r="41" fill="#EFEBEB"/>
<path opacity="0.76" d="M73.8675 43.3765H52.4606C49.2154 43.3765 46.5872 46.0671 46.5872 49.3877V50.9201C46.5872 53.276 48.7462 58.4669 54.0192 58.4669C59.2922 58.4669 60.1617 55.3629 61.0312 53.9126C61.9008 52.459 61.845 52.2621 63.164 52.2621C64.4831 52.2621 64.424 52.459 65.2968 53.9126C66.1664 55.3662 67.0392 58.4669 72.3089 58.4669C77.5818 58.4669 79.7409 53.276 79.7409 50.9201V49.3877C79.7409 46.0704 77.1093 43.3765 73.8675 43.3765Z" fill="#94D1E0"/>
<path d="M47.0728 34.5303C48.0013 33.3917 49.3532 33.021 51.2695 32.6436C55.2332 31.866 59.4857 33.3327 63.5151 33.2539C65.7857 33.2113 67.9349 32.2302 70.1038 31.505C72.2728 30.7799 75.4884 31.0227 79.1109 33.5919" stroke="#37474F" stroke-width="8.734" stroke-miterlimit="10"/>
<path d="M74.6024 29.9563C74.6024 29.9563 77.7196 32.8438 79.0616 36.6107C79.9082 38.9863 79.859 42.891 79.859 42.891C79.859 42.891 81.2863 44.863 81.2863 44.7974C81.2863 44.7318 83.0844 39.0355 81.2863 34.3958C79.8852 30.7766 74.6024 29.9563 74.6024 29.9563ZM53.6844 30.9997C53.6844 30.9997 49.2219 32.9488 47.6174 36.6107C46.0785 40.1183 45.6388 43.79 45.6388 43.79C45.6388 43.79 44.4379 44.5349 44.4379 44.4693C44.4379 44.4036 42.6398 39.3669 44.9924 34.9799C47.473 30.35 53.6844 30.9997 53.6844 30.9997Z" fill="#2F7889"/>
<path d="M80.3611 42.0772C79.3702 39.357 76.3679 37.5425 73.5033 37.9658C73.441 37.9723 67.1246 38.727 63.1674 38.727C59.2069 38.727 52.8938 37.9723 52.8347 37.9658C49.9472 37.5458 46.9908 39.334 45.9638 42.0739H44.6218C44.251 42.0739 43.9524 42.3725 43.9524 42.7433V45.8965C43.9524 46.2673 44.251 46.5659 44.6218 46.5659H45.6455C45.826 48.0458 46.5872 50.0178 46.5872 50.0178C46.3805 52.9447 48.3099 58.3095 54.0193 58.4637C59.2922 58.4637 60.1618 55.3597 61.0313 53.9094C61.9008 52.4558 61.845 52.2589 63.1641 52.2589C64.4832 52.2589 64.4241 52.4558 65.2969 53.9094C66.1665 55.363 67.0393 58.4637 72.309 58.4637C77.0077 58.4637 79.2324 54.3392 79.6622 51.7765C80.2594 50.2344 80.7549 48.4001 80.9025 46.5659H81.2897C81.6605 46.5659 81.9591 46.2673 81.9591 45.8965V42.7433C81.9591 42.3725 81.6605 42.0739 81.2897 42.0739H80.3611V42.0772ZM78.271 51.7044C77.8805 53.7387 76.0758 57.0495 72.309 57.0495C68.529 57.0495 67.6397 55.3531 66.8555 53.8569C66.6586 53.4664 66.4257 53.0792 66.219 52.7281C65.438 51.3894 64.9425 50.8447 63.1674 50.8447C61.3922 50.8447 60.8968 51.3894 60.1158 52.7281C59.9091 53.0825 59.6729 53.4697 59.4793 53.8569C58.695 55.3531 57.8058 57.0495 54.0258 57.0495C50.259 57.0495 48.4543 53.7387 48.0638 51.7044C47.9522 51.1859 48.008 49.9292 47.9949 49.3911C47.9949 46.858 50.0063 44.7973 52.4804 44.7973H73.8544C76.3285 44.7973 78.3399 46.858 78.3399 49.3911C78.3399 49.3911 78.4777 50.8086 78.271 51.7044Z" fill="#BDBDBD"/>
<path d="M73.8675 44.8432C76.2989 44.8432 78.2742 46.8841 78.2742 49.391V50.9233C78.2742 52.7116 76.5581 57.0035 72.3089 57.0035C68.5847 57.0035 67.7053 55.3268 66.9309 53.8502C66.8029 53.6074 66.6848 53.381 66.5536 53.1612C66.4551 52.9971 66.3698 52.8494 66.2911 52.7182C65.4937 51.3532 64.9884 50.7987 63.164 50.7987C61.3397 50.7987 60.8311 51.3532 60.037 52.7182C59.9583 52.8494 59.8729 52.9971 59.7745 53.1612C59.6433 53.3777 59.5251 53.6074 59.3972 53.8502C58.6228 55.3301 57.7434 57.0035 54.0192 57.0035C49.77 57.0035 48.0539 52.7149 48.0539 50.9233V49.391C48.0539 46.8841 50.0292 44.8432 52.4606 44.8432H73.8675ZM73.8675 43.3765H52.4606C49.2154 43.3765 46.5872 46.0671 46.5872 49.3877V50.9201C46.5872 53.276 48.7462 58.4669 54.0192 58.4669C59.2922 58.4669 60.1617 55.3629 61.0312 53.9126C61.9008 52.459 61.845 52.2621 63.164 52.2621C64.4831 52.2621 64.424 52.459 65.2968 53.9126C66.1664 55.3662 67.0392 58.4669 72.3089 58.4669C77.5818 58.4669 79.7409 53.276 79.7409 50.9201V49.3877C79.7409 46.0704 77.1093 43.3765 73.8675 43.3765Z" fill="#C9E3E6"/>
<path d="M73.8675 44.8432C76.2989 44.8432 78.2742 46.8841 78.2742 49.391V50.9233C78.2742 52.7116 76.5581 57.0035 72.3089 57.0035C68.5847 57.0035 67.7053 55.3268 66.9309 53.8502C66.8029 53.6074 66.6848 53.381 66.5536 53.1612C66.4551 52.9971 66.3698 52.8494 66.2911 52.7182C65.4937 51.3532 64.9884 50.7987 63.164 50.7987C61.3397 50.7987 60.8311 51.3532 60.037 52.7182C59.9583 52.8494 59.8729 52.9971 59.7745 53.1612C59.6433 53.3777 59.5251 53.6074 59.3972 53.8502C58.6228 55.3301 57.7434 57.0035 54.0192 57.0035C49.77 57.0035 48.0539 52.7149 48.0539 50.9233V49.391C48.0539 46.8841 50.0292 44.8432 52.4606 44.8432H73.8675ZM73.8675 43.3765H52.4606C49.2154 43.3765 46.5872 46.0671 46.5872 49.3877V50.9201C46.5872 53.276 48.7462 58.4669 54.0192 58.4669C59.2922 58.4669 60.1617 55.3629 61.0312 53.9126C61.9008 52.459 61.845 52.2621 63.164 52.2621C64.4831 52.2621 64.424 52.459 65.2968 53.9126C66.1664 55.3662 67.0392 58.4669 72.3089 58.4669C77.5818 58.4669 79.7409 53.276 79.7409 50.9201V49.3877C79.7409 46.0704 77.1093 43.3765 73.8675 43.3765Z" fill="#C9E3E6"/>
<path opacity="0.61" d="M49.4878 43.1468C50.354 42.6579 51.4598 42.4676 52.2046 42.4676C52.6279 42.4676 52.582 42.0311 52.4606 41.6636L51.8995 40.0165C51.6665 39.4258 51.3285 39.5472 51.1415 39.5702C50.0324 39.708 49.4713 40.069 49.0645 40.3676C48.9234 40.4726 48.6313 40.5283 48.6313 41.1846C48.6313 41.8408 48.674 42.4938 48.7331 42.9368C48.7888 43.3765 49.012 43.4158 49.4878 43.1468Z" fill="white"/>
<path opacity="0.56" d="M48.8611 39.7113C48.9169 39.6424 48.9858 39.5932 49.058 39.544C49.6026 39.1732 50.2359 38.9304 50.8889 38.8418" stroke="white" stroke-width="2" stroke-miterlimit="10" stroke-linecap="round"/>
<path d="M79.6918 49.6568C79.8821 48.725 79.9411 47.7767 79.9608 46.8382C79.9641 46.3657 79.951 45.8965 79.9182 45.4273C79.905 45.1976 79.8788 44.9548 79.8591 44.7284C79.8361 44.502 79.7968 44.2854 79.7475 44.0689C79.3472 42.3462 78.1397 40.8368 76.5779 40.1576C75.8095 39.8125 74.9659 39.6691 74.1268 39.7409C73.7363 39.7704 73.2277 39.8525 72.7585 39.9082L71.3311 40.0854C69.428 40.3217 67.515 40.489 65.5889 40.6006C64.6275 40.6498 63.653 40.6957 62.6752 40.6728C61.7007 40.6531 60.736 40.6039 59.7746 40.5382C57.8518 40.4136 55.9453 40.2068 54.0422 39.964L52.6149 39.777C52.1982 39.7212 51.7847 39.6982 51.368 39.7343C50.5378 39.8032 49.7175 40.0887 49.0022 40.5645C47.5552 41.5029 46.5839 43.1731 46.4494 44.9515L46.4461 44.9154C46.4789 45.7029 46.5413 46.5003 46.6364 47.2878C46.6857 47.6815 46.7447 48.0753 46.8103 48.4625C46.8858 48.8496 46.9646 49.2434 47.145 49.5879L47.063 49.6437C46.8432 49.2926 46.7316 48.8989 46.6233 48.515C46.5183 48.1278 46.4363 47.734 46.3641 47.337C46.2197 46.5462 46.1114 45.7521 46.0261 44.9548V44.9482C46.0228 43.0123 47.0302 41.1289 48.6019 40.0067C49.3873 39.4359 50.3034 39.0715 51.2663 38.9468C51.7453 38.8845 52.231 38.8812 52.7133 38.9403L54.1341 39.0945C56.0307 39.2914 57.9305 39.4587 59.8336 39.5768C61.7368 39.695 63.6399 39.7311 65.543 39.6293C67.4461 39.5342 69.346 39.38 71.2458 39.1929L72.6699 39.0453C73.1457 38.9993 73.6149 38.9271 74.0972 38.9042C75.0619 38.8648 76.0397 39.0715 76.9027 39.5046C78.6385 40.3611 79.9083 42.0771 80.2299 43.9803C80.3185 44.4561 80.3119 44.9384 80.3218 45.4175C80.325 45.8965 80.3086 46.3756 80.2758 46.8514C80.2069 47.8062 80.0658 48.7578 79.7968 49.6798L79.6918 49.6568Z" fill="#757575"/>
<path d="M80.8927 43.147C80.8927 43.147 82.6875 43.5768 82.6875 43.7113C82.6875 43.8459 81.9558 47.8752 81.9558 47.8752C81.9558 47.8752 80.8795 47.4191 80.8894 46.9959C80.8992 46.5726 80.8927 43.147 80.8927 43.147ZM45.6553 43.1732L44.7366 43.0059L43.3125 45.0796L44.7136 48.0491L45.8752 47.7309C45.8752 47.7309 45.6553 45.8868 45.6323 44.991C45.6127 44.092 45.6553 43.1732 45.6553 43.1732Z" fill="#37474F"/>
<path d="M79.741 50.1656V48.6332C79.741 48.3773 79.7214 48.1246 79.6885 47.8752C79.3375 50.4215 77.4475 55.2023 72.6371 55.2023C67.3642 55.2023 66.5668 52.2656 65.6973 50.812C64.8278 49.3584 64.4832 49.0631 63.1642 49.0631C61.8451 49.0631 61.4415 49.2402 60.5687 50.6938C59.6992 52.1474 58.8854 55.2679 53.6125 55.2679C51.437 55.2679 49.8489 53.7585 48.474 52.0392C47.8965 51.3173 47.4339 50.4937 47.1025 49.6242C46.9712 49.2796 46.8859 48.4429 46.6201 48.0196C46.6004 48.2198 46.5906 48.4265 46.5906 48.6332V50.1656C46.5906 52.5215 48.7496 57.7124 54.0226 57.7124C59.2956 57.7124 59.7779 54.5985 60.6475 53.1449C61.517 51.6913 61.8484 51.5043 63.1675 51.5043C64.4865 51.5043 64.7523 51.6913 65.6251 53.1449C66.4946 54.5985 67.0393 57.7124 72.3123 57.7124C77.5787 57.7092 79.741 52.5182 79.741 50.1656Z" fill="#455A64"/>
<path d="M73.8675 44.7974C76.3416 44.7974 78.353 46.8581 78.353 49.3912V50.9235C78.353 52.7249 76.6139 57.0496 72.3056 57.0496C68.5256 57.0496 67.6364 55.3532 66.8522 53.857C66.7242 53.6142 66.2911 52.8595 66.2156 52.7282C65.4347 51.3895 64.9392 50.8448 63.1641 50.8448C61.3889 50.8448 60.8935 51.3895 60.1125 52.7282C60.0338 52.8595 59.6006 53.6174 59.476 53.857C58.6917 55.3532 57.8025 57.0496 54.0225 57.0496C49.7175 57.0496 47.9752 52.7249 47.9752 50.9235V49.3912C47.9752 46.8581 49.9866 44.7974 52.4606 44.7974H73.8675ZM74.1924 43.147H52.1325C48.7889 43.147 46.0786 45.9196 46.0786 49.342V50.9203C46.0786 53.3484 48.3066 58.6968 53.7371 58.6968C59.1708 58.6968 60.0666 55.4976 60.9656 54.0013C61.8614 52.5051 61.8024 52.3017 63.1608 52.3017C64.5192 52.3017 64.4602 52.5051 65.356 54.0013C66.2517 55.4976 67.1508 58.6968 72.5846 58.6968C78.0183 58.6968 80.243 53.3484 80.243 50.9203V49.342C80.2463 45.9229 77.536 43.147 74.1924 43.147Z" fill="url(#paint0_linear_202_2467)"/>
<defs>
<linearGradient id="paint0_linear_202_2467" x1="63.1628" y1="52.908" x2="63.1628" y2="40.7307" gradientUnits="userSpaceOnUse">
<stop stop-color="#D6D6D6"/>
<stop offset="1" stop-color="white"/>
</linearGradient>
</defs>
</svg>
